<svg width="954" height="229" viewBox="0 0 954 229" fill="none" xmlns="http://www.w3.org/2000/svg">
<path d="M125.619 18.08H99.6991V86H80.0191V18.08H53.9791V0.799995H125.619V18.08ZM172.83 86.72C166.03 86.72 160.23 85.6 155.43 83.36C150.63 81.04 146.71 77.92 143.67 74C140.71 70 138.51 65.48 137.07 60.44C135.71 55.32 135.03 49.96 135.03 44.36V0.799995H154.71V44.36C154.71 47.56 155.03 50.68 155.67 53.72C156.31 56.68 157.35 59.32 158.79 61.64C160.23 63.96 162.07 65.8 164.31 67.16C166.63 68.52 169.47 69.2 172.83 69.2C176.27 69.2 179.15 68.52 181.47 67.16C183.79 65.72 185.63 63.84 186.99 61.52C188.35 59.12 189.35 56.44 189.99 53.48C190.63 50.52 190.95 47.48 190.95 44.36V0.799995H210.63V44.36C210.63 50.28 209.87 55.8 208.35 60.92C206.91 66.04 204.67 70.56 201.63 74.48C198.59 78.32 194.67 81.32 189.87 83.48C185.15 85.64 179.47 86.72 172.83 86.72ZM226.879 86V0.799995H265.279C269.279 0.799995 272.959 1.64 276.319 3.32C279.759 4.92 282.719 7.12 285.199 9.92C287.679 12.64 289.599 15.72 290.959 19.16C292.399 22.6 293.119 26.08 293.119 29.6C293.119 33.12 292.559 36.48 291.439 39.68C290.319 42.8 288.719 45.64 286.639 48.2C284.559 50.68 282.079 52.72 279.199 54.32L297.919 86H276.199L259.879 58.52H246.559V86H226.879ZM246.559 41.36H264.559C266.159 41.36 267.559 40.88 268.759 39.92C270.039 38.88 271.079 37.48 271.879 35.72C272.679 33.96 273.079 31.92 273.079 29.6C273.079 27.28 272.599 25.28 271.639 23.6C270.759 21.84 269.639 20.48 268.279 19.52C266.919 18.56 265.479 18.08 263.959 18.08H246.559V41.36ZM327.949 37.28V86H308.269V0.799995H323.869L363.349 50.96V0.799995H383.029V86H366.949L327.949 37.28ZM447.179 0.799995H468.419L497.699 86H477.539L470.939 66.92H444.419L437.939 86H417.779L447.179 0.799995ZM467.699 53.36L457.739 20.6L447.539 53.36H467.699ZM526.77 37.28V86H507.09V0.799995H522.69L562.17 50.96V0.799995H581.85V86H565.77L526.77 37.28ZM628.152 86V0.799995H647.832V86H628.152ZM665.129 86V0.799995H696.929C706.289 0.799995 714.089 2.71999 720.329 6.55999C726.649 10.32 731.409 15.44 734.609 21.92C737.809 28.32 739.409 35.44 739.409 43.28C739.409 51.92 737.649 59.44 734.129 65.84C730.609 72.24 725.649 77.2 719.249 80.72C712.929 84.24 705.489 86 696.929 86H665.129ZM719.369 43.28C719.369 38.32 718.489 33.96 716.729 30.2C714.969 26.36 712.409 23.4 709.049 21.32C705.689 19.16 701.649 18.08 696.929 18.08H684.809V68.72H696.929C701.729 68.72 705.769 67.64 709.049 65.48C712.409 63.24 714.969 60.2 716.729 56.36C718.489 52.44 719.369 48.08 719.369 43.28ZM811.907 68.72V86H752.027V0.799995H810.827V18.08H771.707V34.64H805.307V50.6H771.707V68.72H811.907ZM846.343 0.799995H867.583L896.863 86H876.703L870.103 66.92H843.583L837.103 86H816.943L846.343 0.799995ZM866.863 53.36L856.903 20.6L846.703 53.36H866.863ZM0.140469 227V141.8H19.8205V227H0.140469ZM56.797 178.28V227H37.117V141.8H52.717L92.197 191.96V141.8H111.877V227H95.797L56.797 178.28ZM194.092 159.08H168.172V227H148.492V159.08H122.452V141.8H194.092V159.08ZM240.382 227.72C233.982 227.72 228.182 226.52 222.982 224.12C217.862 221.64 213.422 218.36 209.662 214.28C205.982 210.12 203.142 205.48 201.142 200.36C199.142 195.16 198.142 189.8 198.142 184.28C198.142 178.6 199.182 173.2 201.262 168.08C203.422 162.96 206.382 158.4 210.142 154.4C213.982 150.32 218.502 147.12 223.702 144.8C228.902 142.48 234.582 141.32 240.742 141.32C247.062 141.32 252.782 142.56 257.902 145.04C263.102 147.44 267.542 150.72 271.222 154.88C274.982 159.04 277.862 163.72 279.862 168.92C281.862 174.04 282.862 179.28 282.862 184.64C282.862 190.32 281.822 195.72 279.742 200.84C277.662 205.96 274.702 210.56 270.862 214.64C267.022 218.64 262.502 221.84 257.302 224.24C252.182 226.56 246.542 227.72 240.382 227.72ZM218.182 184.52C218.182 187.8 218.662 191 219.622 194.12C220.582 197.16 221.982 199.88 223.822 202.28C225.742 204.68 228.102 206.6 230.902 208.04C233.702 209.48 236.902 210.2 240.502 210.2C244.262 210.2 247.542 209.48 250.342 208.04C253.142 206.52 255.462 204.52 257.302 202.04C259.142 199.56 260.502 196.8 261.382 193.76C262.342 190.64 262.822 187.48 262.822 184.28C262.822 181 262.342 177.84 261.382 174.8C260.422 171.76 258.982 169.04 257.062 166.64C255.142 164.16 252.782 162.24 249.982 160.88C247.182 159.52 244.022 158.84 240.502 158.84C236.742 158.84 233.462 159.56 230.662 161C227.942 162.44 225.622 164.4 223.702 166.88C221.862 169.28 220.462 172.04 219.502 175.16C218.622 178.2 218.182 181.32 218.182 184.52ZM342.089 141.8H363.329L392.609 227H372.449L365.849 207.92H339.329L332.849 227H312.689L342.089 141.8ZM362.609 194.36L352.649 161.6L342.449 194.36H362.609ZM427.375 227V141.8H463.735C467.815 141.8 471.535 142.64 474.895 144.32C478.335 145.92 481.295 148.12 483.775 150.92C486.255 153.64 488.175 156.72 489.535 160.16C490.895 163.6 491.575 167.12 491.575 170.72C491.575 175.6 490.415 180.24 488.095 184.64C485.855 189.04 482.695 192.64 478.615 195.44C474.615 198.16 469.855 199.52 464.335 199.52H447.055V227H427.375ZM447.055 182.36H463.135C464.655 182.36 466.055 181.92 467.335 181.04C468.615 180.16 469.655 178.84 470.455 177.08C471.255 175.32 471.655 173.16 471.655 170.6C471.655 167.96 471.175 165.8 470.215 164.12C469.335 162.36 468.175 161.08 466.735 160.28C465.375 159.48 463.935 159.08 462.415 159.08H447.055V182.36ZM503.14 227V141.8H541.54C545.54 141.8 549.22 142.64 552.58 144.32C556.02 145.92 558.98 148.12 561.46 150.92C563.94 153.64 565.86 156.72 567.22 160.16C568.66 163.6 569.38 167.08 569.38 170.6C569.38 174.12 568.82 177.48 567.7 180.68C566.58 183.8 564.98 186.64 562.9 189.2C560.82 191.68 558.34 193.72 555.46 195.32L574.18 227H552.46L536.14 199.52H522.82V227H503.14ZM522.82 182.36H540.82C542.42 182.36 543.82 181.88 545.02 180.92C546.3 179.88 547.34 178.48 548.14 176.72C548.94 174.96 549.34 172.92 549.34 170.6C549.34 168.28 548.86 166.28 547.9 164.6C547.02 162.84 545.9 161.48 544.54 160.52C543.18 159.56 541.74 159.08 540.22 159.08H522.82V182.36ZM621.031 227.72C614.631 227.72 608.831 226.52 603.631 224.12C598.511 221.64 594.071 218.36 590.311 214.28C586.631 210.12 583.791 205.48 581.791 200.36C579.791 195.16 578.791 189.8 578.791 184.28C578.791 178.6 579.831 173.2 581.911 168.08C584.071 162.96 587.031 158.4 590.791 154.4C594.631 150.32 599.151 147.12 604.351 144.8C609.551 142.48 615.231 141.32 621.391 141.32C627.711 141.32 633.431 142.56 638.551 145.04C643.751 147.44 648.191 150.72 651.871 154.88C655.631 159.04 658.511 163.72 660.511 168.92C662.511 174.04 663.511 179.28 663.511 184.64C663.511 190.32 662.471 195.72 660.391 200.84C658.311 205.96 655.351 210.56 651.511 214.64C647.671 218.64 643.151 221.84 637.951 224.24C632.831 226.56 627.191 227.72 621.031 227.72ZM598.831 184.52C598.831 187.8 599.311 191 600.271 194.12C601.231 197.16 602.631 199.88 604.471 202.28C606.391 204.68 608.751 206.6 611.551 208.04C614.351 209.48 617.551 210.2 621.151 210.2C624.911 210.2 628.191 209.48 630.991 208.04C633.791 206.52 636.111 204.52 637.951 202.04C639.791 199.56 641.151 196.8 642.031 193.76C642.991 190.64 643.471 187.48 643.471 184.28C643.471 181 642.991 177.84 642.031 174.8C641.071 171.76 639.631 169.04 637.711 166.64C635.791 164.16 633.431 162.24 630.631 160.88C627.831 159.52 624.671 158.84 621.151 158.84C617.391 158.84 614.111 159.56 611.311 161C608.591 162.44 606.271 164.4 604.351 166.88C602.511 169.28 601.111 172.04 600.151 175.16C599.271 178.2 598.831 181.32 598.831 184.52ZM669.945 206.96C670.745 207.52 672.425 208.32 674.985 209.36C677.625 210.32 680.705 210.8 684.225 210.8C687.025 210.8 689.305 210.32 691.065 209.36C692.905 208.4 694.265 206.96 695.145 205.04C696.105 203.04 696.745 200.48 697.065 197.36C697.385 194.16 697.545 190.32 697.545 185.84V141.8H717.225V185.12C717.225 191.52 716.865 197.36 716.145 202.64C715.425 207.92 713.945 212.52 711.705 216.44C709.545 220.28 706.265 223.24 701.865 225.32C697.465 227.32 691.585 228.32 684.225 228.32C680.465 228.32 677.065 227.88 674.025 227C670.985 226.12 668.185 224.8 665.625 223.04L669.945 206.96ZM793.481 209.72V227H733.601V141.8H792.401V159.08H753.281V175.64H786.881V191.6H753.281V209.72H793.481ZM800.111 183.68C800.111 178.48 801.071 173.4 802.991 168.44C804.911 163.4 807.711 158.84 811.391 154.76C815.071 150.68 819.551 147.44 824.831 145.04C830.111 142.56 836.111 141.32 842.831 141.32C850.831 141.32 857.751 143.04 863.591 146.48C869.511 149.92 873.911 154.4 876.791 159.92L861.671 170.48C860.391 167.44 858.671 165.08 856.511 163.4C854.431 161.72 852.111 160.56 849.551 159.92C847.071 159.2 844.671 158.84 842.351 158.84C838.591 158.84 835.311 159.6 832.511 161.12C829.711 162.56 827.391 164.52 825.551 167C823.711 169.48 822.351 172.24 821.471 175.28C820.591 178.32 820.151 181.36 820.151 184.4C820.151 187.76 820.671 191 821.711 194.12C822.751 197.24 824.231 200 826.151 202.4C828.151 204.8 830.551 206.72 833.351 208.16C836.151 209.52 839.231 210.2 842.591 210.2C844.991 210.2 847.431 209.8 849.911 209C852.391 208.2 854.671 206.96 856.751 205.28C858.911 203.52 860.551 201.24 861.671 198.44L877.751 207.92C876.071 212.08 873.311 215.64 869.471 218.6C865.631 221.56 861.271 223.84 856.391 225.44C851.591 226.96 846.831 227.72 842.111 227.72C835.951 227.72 830.271 226.48 825.071 224C819.951 221.44 815.511 218.08 811.751 213.92C808.071 209.68 805.191 204.96 803.111 199.76C801.111 194.48 800.111 189.12 800.111 183.68ZM953.568 159.08H927.648V227H907.968V159.08H881.928V141.8H953.568V159.08Z" fill="url(#paint0_linear_1115_2392)"/>
<defs>
<linearGradient id="paint0_linear_1115_2392" x1="-64" y1="176.028" x2="1011" y2="176.413" gradientUnits="userSpaceOnUse">
<stop stop-color="white"/>
<stop offset="0.494792" stop-color="white" stop-opacity="0.3"/>
<stop offset="1" stop-color="white"/>
</linearGradient>
</defs>
</svg>
