<svg width="417" height="87" viewBox="0 0 417 87" fill="none" xmlns="http://www.w3.org/2000/svg">
<path d="M0.183438 86V0.799995H36.5434C40.6234 0.799995 44.3434 1.64 47.7034 3.32C51.1434 4.92 54.1034 7.12 56.5834 9.92C59.0634 12.64 60.9834 15.72 62.3434 19.16C63.7034 22.6 64.3834 26.12 64.3834 29.72C64.3834 34.6 63.2234 39.24 60.9034 43.64C58.6634 48.04 55.5034 51.64 51.4234 54.44C47.4234 57.16 42.6634 58.52 37.1434 58.52H19.8634V86H0.183438ZM19.8634 41.36H35.9434C37.4634 41.36 38.8634 40.92 40.1434 40.04C41.4234 39.16 42.4634 37.84 43.2634 36.08C44.0634 34.32 44.4634 32.16 44.4634 29.6C44.4634 26.96 43.9834 24.8 43.0234 23.12C42.1434 21.36 40.9834 20.08 39.5434 19.28C38.1834 18.48 36.7434 18.08 35.2234 18.08H19.8634V41.36ZM112.549 86.72C105.749 86.72 99.9491 85.6 95.1491 83.36C90.3491 81.04 86.4291 77.92 83.3891 74C80.4291 70 78.2291 65.48 76.7891 60.44C75.4291 55.32 74.7491 49.96 74.7491 44.36V0.799995H94.4291V44.36C94.4291 47.56 94.7491 50.68 95.3891 53.72C96.0291 56.68 97.0691 59.32 98.5091 61.64C99.9491 63.96 101.789 65.8 104.029 67.16C106.349 68.52 109.189 69.2 112.549 69.2C115.989 69.2 118.869 68.52 121.189 67.16C123.509 65.72 125.349 63.84 126.709 61.52C128.069 59.12 129.069 56.44 129.709 53.48C130.349 50.52 130.669 47.48 130.669 44.36V0.799995H150.349V44.36C150.349 50.28 149.589 55.8 148.069 60.92C146.629 66.04 144.389 70.56 141.349 74.48C138.309 78.32 134.389 81.32 129.589 83.48C124.869 85.64 119.189 86.72 112.549 86.72ZM202.718 86.6C197.118 86.6 191.838 85.56 186.878 83.48C181.918 81.32 177.558 78.32 173.798 74.48C170.038 70.56 167.078 65.96 164.918 60.68C162.838 55.32 161.798 49.36 161.798 42.8C161.798 36.88 162.878 31.36 165.038 26.24C167.198 21.12 170.198 16.6 174.038 12.68C177.878 8.76 182.358 5.72 187.478 3.56C192.678 1.32 198.278 0.199996 204.278 0.199996C212.118 0.199996 219.038 1.88 225.038 5.24C231.038 8.6 235.478 13.12 238.358 18.8L223.718 29.84C221.798 26.08 218.998 23.12 215.318 20.96C211.718 18.8 207.798 17.72 203.558 17.72C200.358 17.72 197.398 18.4 194.678 19.76C192.038 21.04 189.718 22.88 187.718 25.28C185.798 27.6 184.318 30.32 183.278 33.44C182.238 36.56 181.718 39.92 181.718 43.52C181.718 47.2 182.278 50.6 183.398 53.72C184.518 56.84 186.078 59.56 188.078 61.88C190.078 64.12 192.438 65.88 195.158 67.16C197.958 68.44 201.038 69.08 204.398 69.08C208.478 69.08 212.358 68.08 216.038 66.08C219.798 64 223.238 60.96 226.358 56.96V76.4C219.558 83.2 211.678 86.6 202.718 86.6ZM225.158 55.76H208.598V41.48H241.478V86H225.158V55.76ZM291.608 86.6C286.008 86.6 280.728 85.56 275.768 83.48C270.808 81.32 266.448 78.32 262.688 74.48C258.928 70.56 255.968 65.96 253.808 60.68C251.728 55.32 250.688 49.36 250.688 42.8C250.688 36.88 251.768 31.36 253.928 26.24C256.088 21.12 259.088 16.6 262.928 12.68C266.768 8.76 271.248 5.72 276.368 3.56C281.568 1.32 287.168 0.199996 293.168 0.199996C301.008 0.199996 307.928 1.88 313.928 5.24C319.928 8.6 324.368 13.12 327.248 18.8L312.608 29.84C310.688 26.08 307.888 23.12 304.208 20.96C300.608 18.8 296.688 17.72 292.448 17.72C289.248 17.72 286.288 18.4 283.568 19.76C280.928 21.04 278.608 22.88 276.608 25.28C274.688 27.6 273.208 30.32 272.168 33.44C271.128 36.56 270.608 39.92 270.608 43.52C270.608 47.2 271.168 50.6 272.288 53.72C273.408 56.84 274.968 59.56 276.968 61.88C278.968 64.12 281.328 65.88 284.048 67.16C286.848 68.44 289.928 69.08 293.288 69.08C297.368 69.08 301.248 68.08 304.928 66.08C308.688 64 312.128 60.96 315.248 56.96V76.4C308.448 83.2 300.568 86.6 291.608 86.6ZM314.048 55.76H297.488V41.48H330.368V86H314.048V55.76ZM365.859 0.799995H387.099L416.379 86H396.219L389.619 66.92H363.099L356.619 86H336.459L365.859 0.799995ZM386.379 53.36L376.419 20.6L366.219 53.36H386.379Z" fill="url(#paint0_linear_1115_2392)"/>
<defs>
<linearGradient id="paint0_linear_1115_2392" x1="-8" y1="49.9542" x2="414" y2="50.1105" gradientUnits="userSpaceOnUse">
<stop stop-color="white"/>
<stop offset="0.494792" stop-color="white" stop-opacity="0.3"/>
<stop offset="1" stop-color="white"/>
</linearGradient>
</defs>
</svg>
